<svg width="16" height="16" viewBox="0 0 16 16" fill="none" xmlns="http://www.w3.org/2000/svg" toggle="true">
<path d="M5.75 9.75V12H10.25V9.75H15.5V15C15.5 15.1989 15.421 15.3897 15.2803 15.5303C15.1397 15.671 14.9489 15.75 14.75 15.75H1.25C1.05109 15.75 0.860322 15.671 0.71967 15.5303C0.579018 15.3897 0.5 15.1989 0.5 15V9.75H5.75ZM7.25 8.25H8.75V10.5H7.25V8.25ZM4.25 3.75V1.5C4.25 1.30109 4.32902 1.11032 4.46967 0.96967C4.61032 0.829018 4.80109 0.75 5 0.75H11C11.1989 0.75 11.3897 0.829018 11.5303 0.96967C11.671 1.11032 11.75 1.30109 11.75 1.5V3.75H14.75C14.9489 3.75 15.1397 3.82902 15.2803 3.96967C15.421 4.11032 15.5 4.30109 15.5 4.5V8.25H10.25V6.75H5.75V8.25H0.5V4.5C0.5 4.30109 0.579018 4.11032 0.71967 3.96967C0.860322 3.82902 1.05109 3.75 1.25 3.75H4.25ZM5.75 2.25V3.75H10.25V2.25H5.75Z" fill="#30362F" fill-opacity="0.61"/>
</svg>
