<svg width="12" height="10" viewBox="0 0 12 10" fill="none" xmlns="http://www.w3.org/2000/svg" toggle="true">
<path d="M11.9277 1.29953C11.4823 1.49652 11.0101 1.62589 10.5265 1.68337C11.0362 1.37854 11.4177 0.898793 11.5998 0.333535C11.1215 0.618201 10.5971 0.817701 10.0505 0.925618C9.68337 0.532789 9.19672 0.272263 8.66624 0.184542C8.13575 0.0968217 7.59115 0.186821 7.11709 0.440549C6.64303 0.694277 6.26607 1.09752 6.04483 1.58758C5.82359 2.07764 5.77045 2.62707 5.89368 3.15045C4.92366 3.10183 3.97471 2.84976 3.10843 2.41059C2.24216 1.97142 1.47792 1.35498 0.865348 0.601285C0.648517 0.973714 0.534571 1.39708 0.535181 1.82803C0.535181 2.67387 0.965681 3.42112 1.62018 3.85862C1.23285 3.84642 0.85405 3.74182 0.515348 3.55354V3.58387C0.515465 4.14719 0.710396 4.69314 1.06709 5.12915C1.42379 5.56516 1.9203 5.8644 2.47243 5.97612C2.11287 6.07356 1.73586 6.08792 1.36993 6.01812C1.5256 6.503 1.82902 6.92707 2.23769 7.23093C2.64637 7.5348 3.13984 7.70325 3.64901 7.7127C3.14296 8.11014 2.56353 8.40394 1.94386 8.5773C1.32419 8.75066 0.676422 8.80018 0.0375977 8.72303C1.15275 9.4402 2.4509 9.82094 3.77676 9.8197C8.26435 9.8197 10.7184 6.10212 10.7184 2.87804C10.7184 2.77304 10.7155 2.66687 10.7108 2.56303C11.1885 2.2178 11.6008 1.79013 11.9283 1.30012L11.9277 1.29953Z" fill="#30362F"/>
</svg>
