<svg width="12" height="12" viewBox="0 0 12 12" fill="none" xmlns="http://www.w3.org/2000/svg" toggle="true">
<path d="M3.04818 1.91676C3.04802 2.22618 2.92496 2.52287 2.70606 2.74155C2.48715 2.96023 2.19035 3.083 1.88093 3.08285C1.57151 3.08269 1.27482 2.95963 1.05614 2.74072C0.837457 2.52182 0.714689 2.22501 0.714844 1.9156C0.714999 1.60618 0.838063 1.30949 1.05697 1.09081C1.27587 0.872125 1.57267 0.749357 1.88209 0.749512C2.19151 0.749667 2.4882 0.872731 2.70688 1.09163C2.92556 1.31053 3.04833 1.60734 3.04818 1.91676ZM3.08318 3.94676H0.749844V11.2501H3.08318V3.94676ZM6.76984 3.94676H4.44818V11.2501H6.74651V7.4176C6.74651 5.2826 9.52901 5.08426 9.52901 7.4176V11.2501H11.8332V6.62426C11.8332 3.0251 7.71484 3.15926 6.74651 4.92676L6.76984 3.94676Z" fill="#30362F"/>
</svg>
