<svg width="12" height="12" viewBox="0 0 12 12" fill="none" xmlns="http://www.w3.org/2000/svg" toggle="true">
<path d="M5.99984 0.166504C7.58475 0.166504 7.7825 0.172337 8.40434 0.201504C9.02559 0.230671 9.4485 0.328087 9.82067 0.472754C10.2057 0.620921 10.53 0.821587 10.8543 1.14534C11.151 1.43694 11.3805 1.78968 11.5269 2.179C11.671 2.55059 11.769 2.97409 11.7982 3.59534C11.8256 4.21717 11.8332 4.41492 11.8332 5.99984C11.8332 7.58475 11.8273 7.7825 11.7982 8.40434C11.769 9.02559 11.671 9.4485 11.5269 9.82067C11.3809 10.2102 11.1513 10.563 10.8543 10.8543C10.5626 11.1509 10.2099 11.3804 9.82067 11.5269C9.44909 11.671 9.02559 11.769 8.40434 11.7982C7.7825 11.8256 7.58475 11.8332 5.99984 11.8332C4.41492 11.8332 4.21717 11.8273 3.59534 11.7982C2.97409 11.769 2.55117 11.671 2.179 11.5269C1.78953 11.3808 1.43673 11.1512 1.14534 10.8543C0.848658 10.5628 0.619131 10.21 0.472754 9.82067C0.328087 9.44909 0.230671 9.02559 0.201504 8.40434C0.174087 7.7825 0.166504 7.58475 0.166504 5.99984C0.166504 4.41492 0.172337 4.21717 0.201504 3.59534C0.230671 2.9735 0.328087 2.55117 0.472754 2.179C0.618725 1.78944 0.848306 1.43661 1.14534 1.14534C1.43681 0.848555 1.78959 0.619013 2.179 0.472754C2.55117 0.328087 2.9735 0.230671 3.59534 0.201504C4.21717 0.174087 4.41492 0.166504 5.99984 0.166504ZM5.99984 3.08317C5.22629 3.08317 4.48442 3.39046 3.93744 3.93744C3.39046 4.48442 3.08317 5.22629 3.08317 5.99984C3.08317 6.77339 3.39046 7.51525 3.93744 8.06223C4.48442 8.60921 5.22629 8.9165 5.99984 8.9165C6.77339 8.9165 7.51525 8.60921 8.06223 8.06223C8.60921 7.51525 8.9165 6.77339 8.9165 5.99984C8.9165 5.22629 8.60921 4.48442 8.06223 3.93744C7.51525 3.39046 6.77339 3.08317 5.99984 3.08317ZM9.7915 2.93734C9.7915 2.74395 9.71468 2.55848 9.57794 2.42174C9.44119 2.28499 9.25572 2.20817 9.06234 2.20817C8.86895 2.20817 8.68348 2.28499 8.54674 2.42174C8.40999 2.55848 8.33317 2.74395 8.33317 2.93734C8.33317 3.13072 8.40999 3.31619 8.54674 3.45294C8.68348 3.58968 8.86895 3.6665 9.06234 3.6665C9.25572 3.6665 9.44119 3.58968 9.57794 3.45294C9.71468 3.31619 9.7915 3.13072 9.7915 2.93734ZM5.99984 4.24984C6.46397 4.24984 6.90909 4.43421 7.23727 4.7624C7.56546 5.09059 7.74984 5.53571 7.74984 5.99984C7.74984 6.46397 7.56546 6.90909 7.23727 7.23727C6.90909 7.56546 6.46397 7.74984 5.99984 7.74984C5.53571 7.74984 5.09059 7.56546 4.7624 7.23727C4.43421 6.90909 4.24984 6.46397 4.24984 5.99984C4.24984 5.53571 4.43421 5.09059 4.7624 4.7624C5.09059 4.43421 5.53571 4.24984 5.99984 4.24984Z" fill="#30362F"/>
</svg>
