<svg width="16" height="15" viewBox="0 0 16 15" fill="none" xmlns="http://www.w3.org/2000/svg" toggle="true">
<path d="M1.25 0.778809H14.75C14.9489 0.778809 15.1397 0.857722 15.2803 0.998188C15.421 1.13865 15.5 1.32917 15.5 1.52782V13.5119C15.5 13.7106 15.421 13.9011 15.2803 14.0416C15.1397 14.182 14.9489 14.261 14.75 14.261H1.25C1.05109 14.261 0.860322 14.182 0.71967 14.0416C0.579018 13.9011 0.5 13.7106 0.5 13.5119V1.52782C0.5 1.32917 0.579018 1.13865 0.71967 0.998188C0.860322 0.857722 1.05109 0.778809 1.25 0.778809ZM8.045 7.28244L3.236 3.2041L2.26475 4.34558L8.05475 9.25533L13.7405 4.34184L12.7595 3.20859L8.04575 7.28244H8.045Z" fill="#30362F"/>
</svg>
