<svg width="12" height="16" viewBox="0 0 12 16" fill="none" xmlns="http://www.w3.org/2000/svg" toggle="true">
<path d="M1.5 0.728149H10.5C10.6989 0.728149 10.8897 0.807062 11.0303 0.947529C11.171 1.08799 11.25 1.27851 11.25 1.47716V14.9593C11.25 15.1579 11.171 15.3485 11.0303 15.4889C10.8897 15.6294 10.6989 15.7083 10.5 15.7083H1.5C1.30109 15.7083 1.11032 15.6294 0.96967 15.4889C0.829018 15.3485 0.75 15.1579 0.75 14.9593V1.47716C0.75 1.27851 0.829018 1.08799 0.96967 0.947529C1.11032 0.807062 1.30109 0.728149 1.5 0.728149ZM6 11.9633C5.80109 11.9633 5.61032 12.0422 5.46967 12.1826C5.32902 12.3231 5.25 12.5136 5.25 12.7123C5.25 12.9109 5.32902 13.1014 5.46967 13.2419C5.61032 13.3824 5.80109 13.4613 6 13.4613C6.19891 13.4613 6.38968 13.3824 6.53033 13.2419C6.67098 13.1014 6.75 12.9109 6.75 12.7123C6.75 12.5136 6.67098 12.3231 6.53033 12.1826C6.38968 12.0422 6.19891 11.9633 6 11.9633Z" fill="#30362F"/>
</svg>
