<svg width="16" height="16" viewBox="0 0 16 16" fill="none" xmlns="http://www.w3.org/2000/svg" toggle="true">
<path d="M0.5 2.57844L5.75 0.331421L10.25 2.57844L14.9772 0.555374C15.0343 0.530944 15.0966 0.521047 15.1584 0.526569C15.2202 0.532092 15.2797 0.552862 15.3316 0.587016C15.3834 0.62117 15.4259 0.667639 15.4553 0.722252C15.4847 0.776865 15.5001 0.837913 15.5 0.899918V13.0646L10.25 15.3116L5.75 13.0646L1.02275 15.0876C0.965685 15.1121 0.90344 15.122 0.841599 15.1164C0.779759 15.1109 0.720259 15.0901 0.66844 15.056C0.616621 15.0218 0.574104 14.9754 0.544705 14.9207C0.515306 14.8661 0.499945 14.8051 0.5 14.7431V2.57844ZM10.25 13.6368V4.20829L10.2013 4.22926L5.75 2.0062V11.4347L5.79875 11.4137L10.25 13.6368Z" fill="#30362F"/>
</svg>
