<svg width="17" height="18" viewBox="0 0 17 18" fill="none" xmlns="http://www.w3.org/2000/svg" toggle="true">
<path d="M11.7636 11.272L8.25 14.6259L4.73638 11.272C2.10301 11.381 0 13.4376 0 15.9759V16.3134C0 17.245 0.791853 18.0009 1.76786 18.0009H14.7321C15.7081 18.0009 16.5 17.245 16.5 16.3134V15.9759C16.5 13.4376 14.397 11.381 11.7636 11.272ZM0.500893 2.80635L0.736607 2.85909V4.91221C0.478795 5.05987 0.294643 5.31651 0.294643 5.62589C0.294643 5.9212 0.464063 6.16729 0.70346 6.31846L0.128906 8.5087C0.0662946 8.75128 0.20625 9.00089 0.408817 9.00089H1.94833C2.15089 9.00089 2.29085 8.75128 2.22824 8.5087L1.65368 6.31846C1.89308 6.16729 2.0625 5.9212 2.0625 5.62589C2.0625 5.31651 1.87835 5.05987 1.62054 4.91221V3.06299L4.05134 3.62198C3.7346 4.22667 3.53571 4.90167 3.53571 5.62589C3.53571 8.11143 5.64609 10.1259 8.25 10.1259C10.8539 10.1259 12.9643 8.11143 12.9643 5.62589C12.9643 4.90167 12.7691 4.22667 12.4487 3.62198L15.9954 2.80635C16.6657 2.65166 16.6657 1.85362 15.9954 1.69893L8.98292 0.0817384C8.50413 -0.0272461 7.99955 -0.0272461 7.52076 0.0817384L0.500893 1.69541C-0.165737 1.8501 -0.165737 2.65166 0.500893 2.80635Z" fill="#30362F" fill-opacity="0.61"/>
</svg>
