<svg width="66" height="54" viewBox="0 0 66 54" fill="none" xmlns="http://www.w3.org/2000/svg">
<path d="M62.2188 0.4375H3.78125C2.79531 0.43859 1.85007 0.830736 1.1529 1.5279C0.455736 2.22507 0.0635898 3.17031 0.0625 4.15625V41.3438C0.0635898 42.3297 0.455736 43.2749 1.1529 43.9721C1.85007 44.6693 2.79531 45.0614 3.78125 45.0625H25.0552L23.7802 48.25H18.125C17.8432 48.25 17.573 48.3619 17.3737 48.5612C17.1744 48.7605 17.0625 49.0307 17.0625 49.3125V51.4375H10.6875C10.4057 51.4375 10.1355 51.5494 9.9362 51.7487C9.73694 51.948 9.625 52.2182 9.625 52.5C9.625 52.7818 9.73694 53.052 9.9362 53.2513C10.1355 53.4506 10.4057 53.5625 10.6875 53.5625H55.3125C55.5943 53.5625 55.8645 53.4506 56.0638 53.2513C56.2631 53.052 56.375 52.7818 56.375 52.5C56.375 52.2182 56.2631 51.948 56.0638 51.7487C55.8645 51.5494 55.5943 51.4375 55.3125 51.4375H48.9375V49.3125C48.9375 49.0307 48.8256 48.7605 48.6263 48.5612C48.427 48.3619 48.1568 48.25 47.875 48.25H42.2198L40.9448 45.0625H62.2188C63.2047 45.0614 64.1499 44.6693 64.8471 43.9721C65.5443 43.2749 65.9364 42.3297 65.9375 41.3438V4.15625C65.9364 3.17031 65.5443 2.22507 64.8471 1.5279C64.1499 0.830736 63.2047 0.43859 62.2188 0.4375ZM46.8125 50.375V51.4375H19.1875V50.375H46.8125ZM26.0698 48.25L27.3448 45.0625H38.6552L39.9302 48.25H26.0698ZM63.8125 41.3438C63.8121 41.7663 63.6441 42.1715 63.3453 42.4703C63.0465 42.7691 62.6413 42.9371 62.2188 42.9375H3.78125C3.35867 42.9371 2.9535 42.7691 2.65469 42.4703C2.35588 42.1715 2.18785 41.7663 2.1875 41.3438V38.6875H63.8125V41.3438ZM63.8125 36.5625H2.1875V4.15625C2.18785 3.73367 2.35588 3.3285 2.65469 3.02969C2.9535 2.73088 3.35867 2.56285 3.78125 2.5625H62.2188C62.6413 2.56285 63.0465 2.73088 63.3453 3.02969C63.6441 3.3285 63.8121 3.73367 63.8125 4.15625V36.5625Z" fill="#689689"/>
<path d="M28.1671 27.888C28.2838 27.9646 28.4144 28.0174 28.5514 28.0435C28.6885 28.0696 28.8294 28.0684 28.966 28.04C29.1026 28.0117 29.2323 27.9567 29.3477 27.8782C29.4631 27.7997 29.5618 27.6992 29.6384 27.5826L38.0056 14.8326C38.1602 14.597 38.2149 14.3096 38.1577 14.0337C38.1005 13.7578 37.936 13.5159 37.7004 13.3613C37.4648 13.2066 37.1774 13.1519 36.9015 13.2092C36.6256 13.2664 36.3837 13.4309 36.2291 13.6665L27.8619 26.4165C27.7853 26.5331 27.7324 26.6637 27.7063 26.8008C27.6802 26.9379 27.6813 27.0788 27.7096 27.2155C27.738 27.3521 27.793 27.4819 27.8715 27.5973C27.9499 27.7127 28.0504 27.8115 28.1671 27.888Z" fill="#689689"/>
<path d="M39.7573 27.8165C39.9738 27.9969 40.2531 28.0839 40.5337 28.0583C40.8143 28.0328 41.0733 27.8968 41.2537 27.6804L46.5662 21.3054C46.7253 21.1144 46.8124 20.8738 46.8124 20.6252C46.8124 20.3767 46.7253 20.136 46.5662 19.9451L41.2537 13.5701C41.1647 13.462 41.0551 13.3726 40.9314 13.307C40.8077 13.2413 40.6723 13.2008 40.5328 13.1878C40.3934 13.1747 40.2528 13.1893 40.119 13.2307C39.9853 13.2722 39.861 13.3397 39.7534 13.4293C39.6459 13.519 39.5571 13.629 39.4921 13.7531C39.4272 13.8772 39.3875 14.0128 39.3752 14.1523C39.3629 14.2918 39.3783 14.4324 39.4205 14.5659C39.4627 14.6994 39.5309 14.8233 39.6212 14.9304L44.3668 20.6252L39.6212 26.3201C39.4408 26.5366 39.3538 26.8159 39.3793 27.0965C39.4049 27.3771 39.5408 27.6361 39.7573 27.8165Z" fill="#689689"/>
<path d="M24.7462 27.6804C24.8352 27.7884 24.9448 27.8779 25.0685 27.9435C25.1922 28.0091 25.3276 28.0496 25.4671 28.0627C25.6065 28.0758 25.7471 28.0612 25.8809 28.0197C26.0146 27.9782 26.1389 27.9107 26.2465 27.8211C26.354 27.7315 26.4428 27.6214 26.5078 27.4974C26.5727 27.3733 26.6124 27.2376 26.6247 27.0981C26.637 26.9586 26.6216 26.8181 26.5794 26.6845C26.5372 26.551 26.469 26.4272 26.3787 26.3201L21.6331 20.6252L26.3787 14.9304C26.469 14.8233 26.5372 14.6994 26.5794 14.5659C26.6216 14.4324 26.637 14.2918 26.6247 14.1523C26.6124 14.0128 26.5727 13.8772 26.5078 13.7531C26.4428 13.629 26.354 13.519 26.2465 13.4293C26.1389 13.3397 26.0146 13.2722 25.8809 13.2307C25.7471 13.1893 25.6065 13.1747 25.4671 13.1878C25.3276 13.2008 25.1922 13.2413 25.0685 13.307C24.9448 13.3726 24.8352 13.462 24.7462 13.5701L19.4337 19.9451C19.2746 20.136 19.1875 20.3767 19.1875 20.6252C19.1875 20.8737 19.2746 21.1144 19.4337 21.3054L24.7462 27.6804Z" fill="#689689"/>
</svg>
